<svg width="70" height="70" viewBox="0 0 70 70" fill="none" xmlns="http://www.w3.org/2000/svg">
<rect width="70" height="70" fill="#2C2C2C"/>
<path d="M16.672 43L19.488 26.872H23.712V29.336C24.352 28.4827 25.152 27.8 26.112 27.288C27.0933 26.7547 28.2027 26.488 29.44 26.488C30.8267 26.488 31.9253 26.7867 32.736 27.384C33.568 27.9813 34.1227 28.824 34.4 29.912C34.6773 31 34.688 32.2907 34.432 33.784L32.8 43H28.032L29.568 34.232C29.76 33.0587 29.6747 32.152 29.312 31.512C28.9493 30.8507 28.2133 30.52 27.104 30.52C26.464 30.52 25.856 30.68 25.28 31C24.704 31.2987 24.2133 31.736 23.808 32.312C23.424 32.8667 23.1573 33.5493 23.008 34.36L21.472 43H16.672ZM44.7643 43.384C43.2709 43.384 41.9696 43.0747 40.8602 42.456C39.7723 41.8373 38.9509 40.984 38.3963 39.896C37.8416 38.7867 37.6069 37.528 37.6923 36.12C37.7563 34.776 38.0443 33.528 38.5563 32.376C39.0896 31.2027 39.8043 30.1787 40.7003 29.304C41.5963 28.408 42.6309 27.7147 43.8043 27.224C44.9989 26.7333 46.3003 26.488 47.7083 26.488C49.8203 26.488 51.5056 27.064 52.7643 28.216C54.0443 29.3467 54.6843 30.9253 54.6843 32.952H49.5963C49.5749 32.2267 49.3189 31.6613 48.8283 31.256C48.3589 30.8293 47.7403 30.616 46.9723 30.616C46.1829 30.616 45.4683 30.84 44.8283 31.288C44.1883 31.736 43.6656 32.344 43.2603 33.112C42.8763 33.8587 42.6629 34.7227 42.6203 35.704C42.5989 36.2373 42.6416 36.728 42.7483 37.176C42.8549 37.624 43.0256 38.008 43.2603 38.328C43.5163 38.6267 43.8256 38.8613 44.1883 39.032C44.5509 39.2027 44.9669 39.288 45.4363 39.288C45.9696 39.288 46.4603 39.192 46.9083 39C47.3563 38.808 47.7509 38.5413 48.0923 38.2C48.4549 37.8373 48.7323 37.4213 48.9243 36.952H54.0123C53.5216 38.232 52.8176 39.3627 51.9003 40.344C51.0043 41.304 49.9376 42.0507 48.7003 42.584C47.4843 43.1173 46.1723 43.384 44.7643 43.384Z" fill="white"/>
</svg>
